# xmcd CD database file
# Copyright (C) 1993-1998 Ti Kan
#
# Track frame offsets:
#	150
#	10778
#	23805
#	34161
#	45697
#	57918
#	69293
#	80455
#	91319
#	101417
#	110211
#	123624
#	137177
#	152081
#	162266
#	174581
#	183924
#	196692
#
# Disc length: 2771 seconds
#
# Revision: 1
# Processed by: cddbd v1.4b41PL1 Copyright (c) Steve Scherf et al.
# Submitted via: NotifyCDPlayer(CDDB) 1.50
#
DISCID=e90ad112
DTITLE=Various Artist - Downey Blues
DYEAR=1900
DGENRE=
TTITLE0=Midnight Bells Are Ringing - T-Bone Walker, Jr.
TTITLE1=Leave My Woman Alone - Ace Holder
TTITLE2=Chip Chop (May Fair Lady) - Jessie Hill
TTITLE3=Sorry 'Bout That - Chuck Higgins
TTITLE4=I've Got News For You - Little Johnny Taylor
TTITLE5=Woodshed - Jessie Hill
TTITLE6=Happy Anniversary - Ace Holder
TTITLE7=Empty Feeling - T-Bone Walker, Jr.
TTITLE8=Understanding - Jessie Hill
TTITLE9=When You Are Around - Ace Holder
TTITLE10=Night Scene - Chuck Higgins
TTITLE11=Down The Street - Jessie Hill
TTITLE12=Stop Fooling Around - Little Johnny Taylor
TTITLE13=This Love Of Mine - Ace Holder
TTITLE14=TV Guide - Jessie Hill
TTITLE15=Sumptin' Else - T-Bone Walker, Jr.
TTITLE16=Never Thought - Jessie Hill
TTITLE17=Doris Tee - Ace Holder
EXTD=
EXTT0=
EXTT1=
EXTT2=
EXTT3=
EXTT4=
EXTT5=
EXTT6=
EXTT7=
EXTT8=
EXTT9=
EXTT10=
EXTT11=
EXTT12=
EXTT13=
EXTT14=
EXTT15=
EXTT16=
EXTT17=
PLAYORDER=
